<svg viewBox="0 0 20 23" xmlns="http://www.w3.org/2000/svg">
  <path fill="#e9e9e9" d="M18.9543599,0.163054604 C19.5557814,0.163054604 19.9583774,0.496387937 19.9583774,1.23756023 C19.9583774,2.79311579 19.9722516,9.33292024 20,20.8569736 C20,21.5496819 19.4427083,22.1069736 18.75,22.1069736 L1.25,22.1069736 C0.557291667,22.1069736 0,21.5496819 0,20.8569736 L0,1.3569736 C0,0.664265262 0.557291667,0.106973595 1.25,0.106973595 C12.651959,0.144360934 18.5534123,0.163054604 18.9543599,0.163054604 Z M13.7619048,11.7852253 L13.7619048,10.2296698 C13.7619048,10.0463364 13.6244048,9.89633642 13.4563492,9.89633642 L11.1137566,9.89633642 L11.1137566,7.34078086 C11.1137566,7.15744753 10.9762566,7.00744753 10.8082011,7.00744753 L9.38227513,7.00744753 C9.21421958,7.00744753 9.07671958,7.15744753 9.07671958,7.34078086 L9.07671958,9.89633642 L6.73412698,9.89633642 C6.56607143,9.89633642 6.42857143,10.0463364 6.42857143,10.2296698 L6.42857143,11.7852253 C6.42857143,11.9685586 6.56607143,12.1185586 6.73412698,12.1185586 L9.07671958,12.1185586 L9.07671958,14.6741142 C9.07671958,14.8574475 9.21421958,15.0074475 9.38227513,15.0074475 L10.8082011,15.0074475 C10.9762566,15.0074475 11.1137566,14.8574475 11.1137566,14.6741142 L11.1137566,12.1185586 L13.4563492,12.1185586 C13.6244048,12.1185586 13.7619048,11.9685586 13.7619048,11.7852253 Z"></path>
</svg>
