<?xml-stylesheet type="text/css" href="/css/buttons.css" ?>
<svg viewBox="0 0 20 22" version="1.1" xmlns="http://www.w3.org/2000/svg">
  <path class="buttonPath" d="M11.6666667,7.08333333 L11.6666667,0 L1.25,0 C0.557291667,0 0,0.557291667 0,1.25 L0,20.75 C0,21.4427083 0.557291667,22 1.25,22 L18.75,22 C19.4427083,22 20,21.4427083 20,20.75 L20,8.33333333 L12.9166667,8.33333333 C12.2291667,8.33333333 11.6666667,7.77083333 11.6666667,7.08333333 Z M15,18.7083333 C15,19.0520833 14.71875,19.3333333 14.375,19.3333333 L5.625,19.3333333 C5.28125,19.3333333 5,19.0520833 5,18.7083333 L5,18.2916667 C5,17.9479167 5.28125,17.6666667 5.625,17.6666667 L14.375,17.6666667 C14.71875,17.6666667 15,17.9479167 15,18.2916667 L15,18.7083333 Z M15,15.375 C15,15.71875 14.71875,16 14.375,16 L5.625,16 C5.28125,16 5,15.71875 5,15.375 L5,14.9583333 C5,14.6145833 5.28125,14.3333333 5.625,14.3333333 L14.375,14.3333333 C14.71875,14.3333333 15,14.6145833 15,14.9583333 L15,15.375 Z M15,11.625 L15,12.0416667 C15,12.3854167 14.71875,12.6666667 14.375,12.6666667 L5.625,12.6666667 C5.28125,12.6666667 5,12.3854167 5,12.0416667 L5,11.625 C5,11.28125 5.28125,11 5.625,11 L14.375,11 C14.71875,11 15,11.28125 15,11.625 Z M20,6.34895833 L20,6.66666667 L13.3333333,6.66666667 L13.3333333,0 L13.6510417,0 C13.984375,0 14.3020833,0.130208333 14.5364583,0.364583333 L19.6354167,5.46875 C19.8697917,5.703125 20,6.02083333 20,6.34895833 Z" id="Shape"></path>
</svg>
